<?xml version="1.0" encoding="utf-8"?>
<!-- Generator: Adobe Illustrator 18.1.1, SVG Export Plug-In . SVG Version: 6.00 Build 0)  -->
<svg version="1.1" id="Слой_1" xmlns="http://www.w3.org/2000/svg" xmlns:xlink="http://www.w3.org/1999/xlink" x="0px" y="0px"
     viewBox="0 0 18.916666 11.416667" enable-background="new 0 0 18.916666 11.416667" xml:space="preserve">
<path fill="#CCCCCC" d="M16.7597656,2.5038538c0,2.5449219-0.4677734,4.3808594-1.4033203,5.5078125
    c-0.9365234,1.1289063-2.0283203,1.6923828-3.2763672,1.6923828c-0.7197266,0-1.3681641-0.2041016-1.9443359-0.6123047
    C9.5595703,8.6845179,9.0205078,8.2274866,8.515625,7.7235804C8.0117188,7.2196741,7.53125,6.764596,7.0761719,6.3554163
    C6.6191406,5.9481897,6.1279297,5.7440882,5.5996094,5.7440882c-0.7197266,0-1.3203125,0.2646484-1.7998049,0.7919922
    c-0.4804688,0.5283203-0.7197266,1.34375-0.7197266,2.4482422h-1.080078c0-2.5439453,0.4677733-4.3798828,1.4042968-5.5087891
    c0.9355471-1.1269531,2.027344-1.6914063,3.2753909-1.6914063c0.7207031,0,1.3681641,0.2041016,1.9443359,0.6113281
    c0.5761719,0.4091797,1.1162109,0.8642578,1.6201172,1.3681641s0.9833984,0.9609375,1.4394531,1.3681641
    c0.4560547,0.4082031,0.9472656,0.6123047,1.4765625,0.6123047c0.7197266,0,1.3193359-0.2636719,1.7998047-0.7919922
    c0.4794922-0.5273438,0.7197266-1.34375,0.7197266-2.4482422H16.7597656z"/>
</svg>
